<svg xmlns="http://www.w3.org/2000/svg" xmlns:xlink="http://www.w3.org/1999/xlink" width="124.096" height="15.12" viewBox="0 0 124.096 15.12">
  <defs>
    <linearGradient id="linear-gradient" x1="0.5" x2="0.5" y2="2.021" gradientUnits="objectBoundingBox">
      <stop offset="0" stop-color="#fff"/>
      <stop offset="1" stop-color="#0a84ef"/>
    </linearGradient>
  </defs>
  <path id="任务支撑态势" d="M.736,1.6H4.08L5.488-8.464H4.544l2.128-5.024H3.616a.605.605,0,0,0-.56.368L.416-7.248H1.984ZM6.848-.32A.823.823,0,0,0,6.28-.1a.893.893,0,0,0-.3.544l-.128.9h11.92a.484.484,0,0,0,.328-.136A.552.552,0,0,0,18.288.88l.176-1.2h-4.48L14.8-6.112h3.968a1.053,1.053,0,0,0,.712-.272,1.1,1.1,0,0,0,.376-.672l.1-.7H15.04l.544-3.9,2.864-.048a1.961,1.961,0,0,0,1.24-.5,1.926,1.926,0,0,0,.648-1.176l-11.7.208a.913.913,0,0,0-.568.232.944.944,0,0,0-.312.552l-.112.88,4.592-.08L11.7-7.76H7.232a.566.566,0,0,0-.392.152.689.689,0,0,0-.216.376l-.16,1.12h5.008L10.656-.32ZM21.056,1.568a5.57,5.57,0,0,0,4.88-2.9l1.488-2.736h9.392L36.288-.288a.6.6,0,0,1-.24.416A.623.623,0,0,1,35.616.3h-2.5a1.033,1.033,0,0,0-.712.264,1.1,1.1,0,0,0-.36.664L32,1.568h5.584a1.978,1.978,0,0,0,1.328-.512,1.915,1.915,0,0,0,.672-1.248l.736-5.152H28.08l.368-.7H25.472a.5.5,0,0,0-.464.288l-.208.416H22.24a.554.554,0,0,0-.384.144.591.591,0,0,0-.192.368l-.112.768h2.576ZM41.3-12.96l-.256,1.776L35.1-9.1,39.136-7.68a1.359,1.359,0,0,0,.4.064h1.472l-.192,1.3H38a6.12,6.12,0,0,1-1.152-.1.47.47,0,0,0-.112-.016q-.464-.1-.992-.24L31.3-7.776l-4.544,1.1q-.64.16-1.184.256a6.824,6.824,0,0,1-1.184.1H21.568l.176-1.168h.96a1.414,1.414,0,0,0,.4-.048.438.438,0,0,1,.1-.016,1.152,1.152,0,0,0,.24-.064q.08-.032.176-.064l4.192-1.376L25.6-10.272a.934.934,0,0,1-.848.56h-2.7L23.6-13.136a.635.635,0,0,1,.2-.248.477.477,0,0,1,.3-.1h2.96l-.208.528ZM31.6-9.584l4.656-2.08H27.5ZM54.336.976a3.591,3.591,0,0,0,2.016.624h3.776l-6.5-4.384,7.616-5.1.192-1.648H54.016l.208-1.648h7.1a.655.655,0,0,0,.456-.184.8.8,0,0,0,.248-.472l.112-.752H54.416l.128-.9H51.76a.429.429,0,0,0-.3.12.534.534,0,0,0-.16.312l-.064.464H44.224a.659.659,0,0,0-.448.168.666.666,0,0,0-.224.44l-.112.8h7.6l-.208,1.648H43.856a.506.506,0,0,0-.36.144.693.693,0,0,0-.2.368L43.168-8H56.88l-5.5,3.728L47.52-7.136a.811.811,0,0,0-.48-.16H43.072l5.84,4.576L41.792,1.6h3.6a3.355,3.355,0,0,0,1.728-.48L51.088-1.2ZM77.152-2.752l-.1.64H81.5l-.048.448a1.029,1.029,0,0,1-.312.584.847.847,0,0,1-.6.232H76.9l-.1.656a2.015,2.015,0,0,1-.64,1.232,1.8,1.8,0,0,1-1.264.528H70.7l.064-.464A.991.991,0,0,1,71.08.528.823.823,0,0,1,71.648.3H73.1A.49.49,0,0,0,73.44.176a.618.618,0,0,0,.208-.368l.08-.656H69.344l.048-.448A1.029,1.029,0,0,1,69.7-1.88a.847.847,0,0,1,.6-.232h3.6l.08-.64H69.776L69.84-3.2a.933.933,0,0,1,.3-.584.855.855,0,0,1,.592-.232H74.16l.1-.688H70l.048-.352a1.077,1.077,0,0,1,.352-.656.98.98,0,0,1,.672-.256H81.9l-.048.336a1.089,1.089,0,0,1-.352.672.98.98,0,0,1-.672.256H77.408l-.1.688h4.272l-.064.448a.933.933,0,0,1-.3.584.855.855,0,0,1-.592.232Zm5.632-9.056a1.243,1.243,0,0,1,.112.784l-.08.56H79.648L79.7-10.8a.3.3,0,0,0-.064-.272.3.3,0,0,0-.256-.128h-5.3a.382.382,0,0,0-.272.128.478.478,0,0,0-.16.272l-.048.336H70.464l.064-.464a1.776,1.776,0,0,1,.32-.816,1.345,1.345,0,0,1,.64-.528L71.376-13.3h2.192a.827.827,0,0,1,.584.232.95.95,0,0,1,.3.584l.016.1h.848l.064-.384a.858.858,0,0,1,.264-.52.738.738,0,0,1,.52-.2h2.448l-.144,1.1h.848l.128-.336a.9.9,0,0,1,.832-.576H82.64l-.368,1.008A1.117,1.117,0,0,1,82.784-11.808ZM79.36-8.9H73.872l.16-1.184h8.432l-.272,2.128a1.809,1.809,0,0,1-.576,1.072,1.579,1.579,0,0,1-1.1.464H71.664a1.2,1.2,0,0,1-.976-.448A1.372,1.372,0,0,1,70.4-7.952l.288-2.128h2.96L73.488-8.9l-.016.176-.1.72a.3.3,0,0,0,.064.272A.3.3,0,0,0,73.7-7.6h5.136a.333.333,0,0,0,.256-.128A.405.405,0,0,0,79.232-8ZM69.024-13.328l-.208,1.552h1.552l-.1.736a.8.8,0,0,1-.248.472.674.674,0,0,1-.472.184H68.64l-.8,5.92,1.552-.144-.112.848a.73.73,0,0,1-.216.464.77.77,0,0,1-.456.208l-.976.08L67.264-.144a2.033,2.033,0,0,1-.656,1.232,1.824,1.824,0,0,1-1.264.512H62.7l.08-.64a.771.771,0,0,1,.24-.448.642.642,0,0,1,.448-.176.637.637,0,0,0,.416-.16.673.673,0,0,0,.224-.416l.32-2.5-1.424.128.112-.848a.832.832,0,0,1,.232-.456.749.749,0,0,1,.456-.216l.832-.064.832-6.192H64.048l.112-.752a.714.714,0,0,1,.232-.456.674.674,0,0,1,.472-.184h.8l.208-1.552ZM83.5,1.6A3.53,3.53,0,0,0,85.832.752a4.066,4.066,0,0,0,1.352-2.224l.9-4.048H85.648a.679.679,0,0,0-.448.16.768.768,0,0,0-.256.416ZM98.192-8.56a4.008,4.008,0,0,0,3.616,2.352H102.9l-2.544-5.216h2.272a.976.976,0,0,0,.68-.272,1.141,1.141,0,0,0,.36-.688l.032-.32H93.168l.672-.768H90.656a.75.75,0,0,0-.544.24l-.448.528H86.352a.983.983,0,0,0-.688.264,1.124,1.124,0,0,0-.352.68l-.048.336h3.28l-3.92,5.216H85.2a6.021,6.021,0,0,0,4.848-2.5l2.032-2.72H96.8ZM89.264-5.616l-.72,5.44a1.541,1.541,0,0,0,.32,1.264,1.368,1.368,0,0,0,1.12.512h7.04a1.139,1.139,0,0,0-.248-.9A.993.993,0,0,0,95.968.32H92.224A.5.5,0,0,1,91.84.144a.521.521,0,0,1-.112-.416l.72-5.344Zm2.1-3.776-.08.672a1.4,1.4,0,0,0,.216.968,1.288,1.288,0,0,0,.792.552l4.336.992L96.8-7.6a.574.574,0,0,0-.088-.408.588.588,0,0,0-.344-.248ZM93.9-.816h3.024l.1-2.032a2.6,2.6,0,0,0-.672-1.9,2.26,2.26,0,0,0-1.744-.776h-.464ZM98.592,1.6h3.04l.224-4.464a2.649,2.649,0,0,0-.68-1.888A2.246,2.246,0,0,0,99.44-5.52h-.512Zm7.5-10.736a.685.685,0,0,0-.432.176.864.864,0,0,0-.208.432l-.1.7,1.856-.144-.08.64a.662.662,0,0,1-.192.384.643.643,0,0,1-.464.208h-.208a.826.826,0,0,0-.528.192.863.863,0,0,0-.272.512l-.064.56h3.04a1.959,1.959,0,0,0,1.312-.512,1.982,1.982,0,0,0,.688-1.248l.128-.992,1.072-.08a.719.719,0,0,0,.432-.208.716.716,0,0,0,.224-.4l.1-.72-1.648.144.288-2.032h.848a.89.89,0,0,0,.576-.208.889.889,0,0,0,.3-.56l.064-.512h-1.616l.1-.688h-2.848a.511.511,0,0,0-.352.128.617.617,0,0,0-.176.352l-.032.208h-1.088a.815.815,0,0,0-.576.224.925.925,0,0,0-.3.544l-.064.512h1.856l-.32,2.288ZM104.3,1.632h2.016a3,3,0,0,0,1.5-.392A3,3,0,0,0,108.928.16l2.288-3.232h8.944l-.368,2.64a1.072,1.072,0,0,1-.24.56.677.677,0,0,1-.544.224h-2.08a1.234,1.234,0,0,0-.832.32,1.291,1.291,0,0,0-.432.8l-.016.16h5.408a2.019,2.019,0,0,0,1.328-.512,1.977,1.977,0,0,0,.672-1.264l.608-4.272H112l.464-.7h-3.232a.821.821,0,0,0-.7.4l-.208.3h-2.576a.742.742,0,0,0-.464.16.7.7,0,0,0-.224.448l-.1.736h2.576Zm8.288-7.1h2.432a1.608,1.608,0,0,0,1.44-.912l.688-1.408,2.352.416.1-.64a.676.676,0,0,0-.112-.48.672.672,0,0,0-.432-.256l-1.312-.224.992-2.592h2.272l-.656,4.752a1.572,1.572,0,0,0,.32,1.248,1.515,1.515,0,0,0,1.2.512h2.384l.112-.8a.465.465,0,0,0-.1-.336.365.365,0,0,0-.3-.144.3.3,0,0,1-.24-.112.386.386,0,0,1-.064-.272l.848-6.128H119.36l.3-.64h-2.912a.812.812,0,0,0-.752.48l-.08.16h-1.952a.554.554,0,0,0-.384.144.641.641,0,0,0-.224.384l-.1.752H115.3l-.7,2.032-1.632-.288-.08.64a.676.676,0,0,0,.112.48.74.74,0,0,0,.432.272l.56.1Z" transform="translate(-0.416 13.488)" fill="url(#linear-gradient)"/>
</svg>
