<svg xmlns="http://www.w3.org/2000/svg" xmlns:xlink="http://www.w3.org/1999/xlink" width="33.835" height="32.233" viewBox="0 0 33.835 32.233">
  <defs>
    <linearGradient id="linear-gradient" x1="0.5" x2="0.5" y2="1" gradientUnits="objectBoundingBox">
      <stop offset="0" stop-color="#0b3751"/>
      <stop offset="1" stop-color="#0d4753" stop-opacity="0.169"/>
    </linearGradient>
    <linearGradient id="linear-gradient-2" x1="0.5" x2="0.5" y2="1" gradientUnits="objectBoundingBox">
      <stop offset="0" stop-color="#05fdfc"/>
      <stop offset="1" stop-color="#02a2ff"/>
    </linearGradient>
  </defs>
  <g id="状态采集" transform="translate(-1467.845 -604.347)">
    <path id="路径_87713" data-name="路径 87713" d="M1466.152,456.2l-14.015,16.713,14.015,15.519h19.82V456.2Z" transform="translate(15.708 148.151)" fill="url(#linear-gradient)"/>
    <path id="采集" d="M47.525,45.238a.9.9,0,0,1-.868.935H33.039a.831.831,0,0,1-.626-.272.927.927,0,0,1-.258-.663V42.127a.919.919,0,0,1,.258-.663.831.831,0,0,1,.626-.271h4.3l1.247,1.327a1.723,1.723,0,0,0,2.512,0l1.259-1.327h4.288a.831.831,0,0,1,.627.271.953.953,0,0,1,.253.664v3.111Zm-2.99-7.609-4.269,4.1a.612.612,0,0,1-.854,0l-4.269-4.1a.517.517,0,0,1-.137-.639.593.593,0,0,1,.563-.358h2.437v-4.1a.555.555,0,0,1,.177-.415.609.609,0,0,1,.427-.176h2.437a.606.606,0,0,1,.427.176.555.555,0,0,1,.178.414v4.1h2.454a.592.592,0,0,1,.563.357.511.511,0,0,1-.136.641h0ZM43.8,44.554a.717.717,0,0,0,.077-.982.7.7,0,0,0-1.039-.028.714.714,0,0,0-.2.508.683.683,0,0,0,.668.7.651.651,0,0,0,.494-.195Zm2.1,0a.717.717,0,0,0,.077-.982.7.7,0,0,0-1.038-.028.709.709,0,0,0-.2.508.683.683,0,0,0,.668.7.653.653,0,0,0,.494-.195Z" transform="translate(1448.58 579.006)" fill="url(#linear-gradient-2)"/>
  </g>
</svg>
